<?xml version="1.0" encoding="UTF-8" standalone="no"?><!DOCTYPE svg PUBLIC "-//W3C//DTD SVG 1.1//EN" "http://www.w3.org/Graphics/SVG/1.1/DTD/svg11.dtd"><svg width="100%" height="100%" viewBox="0 0 114 100" version="1.1" xmlns="http://www.w3.org/2000/svg" xmlns:xlink="http://www.w3.org/1999/xlink" xml:space="preserve" xmlns:serif="http://www.serif.com/" style="fill-rule:evenodd;clip-rule:evenodd;stroke-linecap:round;stroke-linejoin:round;stroke-miterlimit:1.5;"><rect id="Artboard2" x="0.073" y="0.021" width="113.386" height="99.058" style="fill:none;"/><path d="M82.527,27.994c-14.677,-14.678 -38.474,-14.678 -53.152,0c-14.667,14.668 -14.667,38.484 0,53.152c14.678,14.677 38.475,14.677 53.152,0" style="fill:none;stroke:#d7625c;stroke-width:6.04px;"/><path d="M89.775,88.394c18.681,-18.681 18.681,-48.968 0,-67.648c-18.668,-18.668 -48.98,-18.668 -67.648,0c-18.68,18.68 -18.68,48.967 0,67.648" style="fill:none;stroke:#5eae58;stroke-width:6.04px;"/><path d="M48.877,80.972c14.582,3.907 29.57,-4.746 33.477,-19.328c3.905,-14.572 -4.756,-29.572 -19.328,-33.477c-14.582,-3.907 -29.57,4.747 -33.477,19.328" style="fill:none;stroke:#aa78bf;stroke-width:6.04px;"/></svg>